# xmcd CD database file
#
# Track frame offsets:
#	182
#	10895
#	29442
#	43740
#	54600
#	67195
#	79222
#	95117
#	108450
#	119615
#	131057
#	145165
#	155677
#	169070
#	182330
#	198800
#
# Disc length: 2845 seconds
#
# Revision: 0
# Processed by: cddbd v1.4PL0 Copyright (c) Steve Scherf et al.
# Submitted via: CDex 1.50beta9
#
DISCID=e70b1b10
DTITLE=DECLAN NERNEY - LUCKY I GUESS
DYEAR=1900
DGENRE=Country
TTITLE0=I'm Just Lucky I Guess
TTITLE1=Nobody's Child
TTITLE2=Three Way Love Affair
TTITLE3=Big Big Love
TTITLE4=I'd Rather Love And Lose You
TTITLE5=Sweet Rathcoole
TTITLE6=Sprig Of Irish Heather
TTITLE7=Morningtown Ride
TTITLE8=Hi-Lili Hi-Llo
TTITLE9=She's Not You
TTITLE10=If Iwere In Your Shoes
TTITLE11=Stand At Your Window
TTITLE12=Dear Old Galway Town
TTITLE13=The Gallant John Joe
TTITLE14=I Still Can's Say GoodBye
TTITLE15=The Marquee In Drumlish
EXTD=
EXTT0=
EXTT1=
EXTT2=
EXTT3=
EXTT4=
EXTT5=
EXTT6=
EXTT7=
EXTT8=
EXTT9=
EXTT10=
EXTT11=
EXTT12=
EXTT13=
EXTT14=
EXTT15=
PLAYORDER=
